<svg xmlns="http://www.w3.org/2000/svg" width="46" height="39" viewBox="0 0 46 39"><g><g><g><path fill="#085ba7" d="M3.638.83h38.824c1.656 0 3 1.136 3 2.537v1.77c0 1.402-1.344 2.539-3 2.539H3.638c-1.657 0-3-1.137-3-2.538v-1.77c0-1.402 1.343-2.538 3-2.538z"/></g><g><path fill="#085ba7" d="M3.638 31.281h38.824c1.656 0 3 1.136 3 2.538v1.77c0 1.402-1.344 2.538-3 2.538H3.638c-1.657 0-3-1.136-3-2.538v-1.77c0-1.402 1.343-2.538 3-2.538z"/></g><g><path fill="#085ba7" d="M3.515 16.107h21.014c1.657 0 3 1.136 3 2.538v1.453c0 1.401-1.343 2.537-3 2.537H3.515c-1.657 0-3-1.136-3-2.537v-1.453c0-1.402 1.343-2.538 3-2.538z"/></g></g></g></svg>